<?xml version="1.0" standalone="no"?>
<!DOCTYPE svg PUBLIC "-//W3C//DTD SVG 20010904//EN"
 "http://www.w3.org/TR/2001/REC-SVG-20010904/DTD/svg10.dtd">
<svg version="1.0" xmlns="http://www.w3.org/2000/svg"
 width="617.000000pt" height="405.000000pt" viewBox="0 0 617.000000 405.000000"
 preserveAspectRatio="xMidYMid meet">

<g transform="translate(0.000000,405.000000) scale(0.100000,-0.100000)"
fill="#000000" stroke="none">
<path d="M3607 3238 c-8 -13 -19 -32 -25 -43 -10 -17 -11 -15 -12 19 0 38 -1
39 -19 22 -11 -10 -25 -37 -32 -61 -13 -43 -13 -43 -41 -29 -119 61 -464 69
-623 14 -33 -12 -67 -23 -75 -26 -11 -4 -21 7 -33 34 -19 43 -63 89 -74 78
-13 -12 -6 -90 11 -130 15 -36 15 -38 -15 -78 -36 -51 -55 -117 -64 -223 -7
-94 -26 -136 -135 -300 -102 -156 -149 -273 -150 -375 l0 -34 31 34 c28 33 30
33 25 10 -3 -14 -7 -70 -10 -125 -5 -80 -4 -93 5 -65 18 58 25 54 37 -25 12
-78 51 -173 52 -127 0 38 13 25 53 -52 27 -53 49 -81 78 -100 22 -15 44 -24
50 -20 6 3 18 -1 28 -10 10 -9 52 -34 94 -54 57 -29 77 -35 79 -25 2 11 13 9
48 -10 77 -41 125 -69 138 -79 9 -8 12 -4 12 16 0 35 21 33 63 -4 39 -33 47
-36 47 -16 0 7 7 19 15 26 13 11 20 9 39 -9 l24 -22 68 51 c70 52 93 54 74 5
-10 -26 -9 -27 16 -21 14 4 48 25 76 47 28 22 64 47 79 55 27 14 28 13 31 -17
l3 -32 54 49 c30 27 67 69 83 93 18 29 28 38 28 26 0 -17 1 -17 20 0 22 20
105 184 117 230 l7 30 4 -34 4 -35 21 45 c17 35 21 63 22 137 0 50 1 92 2 92
0 0 11 -16 22 -36 12 -20 24 -35 26 -32 7 6 -21 168 -35 203 -24 65 -73 149
-121 208 -97 121 -139 207 -139 288 0 71 -19 147 -51 209 l-29 55 21 59 c29
84 11 170 -24 114z m-307 -170 c-25 -38 -80 -153 -80 -168 0 -5 -4 -10 -10
-10 -17 0 -11 62 10 108 20 43 73 102 92 102 5 0 0 -15 -12 -32z m-299 -69
c35 -35 65 -105 57 -130 -2 -6 -23 19 -46 55 -24 35 -59 76 -78 91 -19 14 -34
30 -34 35 0 18 64 -14 101 -51z m49 41 c20 -11 48 -85 36 -97 -9 -9 -19 3 -50
60 -26 47 -22 57 14 37z m254 -165 c-21 -42 -35 -86 -39 -131 -9 -76 -25 -69
-25 12 0 61 22 129 52 161 40 43 45 24 12 -42z m-324 -14 c37 -26 70 -97 70
-153 0 -26 -4 -50 -10 -53 -6 -4 -10 6 -10 22 0 41 -46 132 -88 177 -34 35
-35 38 -12 31 14 -4 36 -14 50 -24z m619 -54 c-6 -10 -17 -21 -25 -24 -29 -11
0 -25 40 -19 36 5 39 4 23 -8 -31 -24 -82 -28 -124 -11 l-38 17 35 18 c19 10
46 30 59 44 27 29 48 17 30 -17z m-855 14 c27 -18 66 -67 66 -83 0 -15 -111
-8 -148 9 l-37 16 30 7 30 7 -27 13 c-32 15 -35 25 -10 39 27 16 64 13 96 -8z
m664 -8 c-22 -25 -52 -89 -73 -153 -22 -70 -26 -75 -36 -59 -28 44 6 145 65
197 39 34 70 45 44 15z m-461 -89 c27 -30 45 -93 41 -142 -4 -39 -9 -33 -27
35 -6 23 -27 65 -46 93 -32 47 -33 51 -12 45 12 -4 32 -18 44 -31z m270 -69
c83 -126 125 -162 209 -175 72 -12 91 -30 145 -137 32 -63 53 -92 81 -111 21
-13 38 -27 38 -30 0 -5 -71 5 -96 15 -16 6 -16 4 2 -26 10 -18 32 -44 47 -57
37 -31 9 -34 -34 -3 l-29 20 0 -53 c0 -202 -71 -331 -220 -402 -63 -30 -70
-31 -200 -31 -121 0 -141 3 -187 24 -127 57 -194 132 -235 266 -12 38 -23 71
-23 73 -1 1 -16 -3 -34 -9 -37 -13 -50 -6 -31 16 7 8 10 15 6 15 -3 0 7 19 24
42 38 52 38 63 -1 43 -17 -9 -39 -15 -50 -13 -18 3 -15 10 26 63 26 33 62 89
80 125 46 88 81 122 161 154 104 42 141 78 199 196 45 91 51 100 63 83 7 -10
33 -49 59 -88z m-454 15 c6 0 4 -7 -5 -16 -18 -18 -38 -11 -38 13 0 10 6 13
16 9 9 -3 21 -6 27 -6z m843 -1 c3 -6 0 -15 -7 -20 -22 -14 -29 -11 -29 11 0
21 24 27 36 9z m-94 -75 c31 -16 94 -16 131 0 23 11 23 -20 0 -46 -32 -35
-138 -15 -163 31 -19 36 -13 38 32 15z m-848 -19 c12 -9 42 -15 75 -15 51 -1
54 -2 37 -15 -35 -26 -85 -30 -114 -8 -26 19 -42 53 -25 53 4 0 17 -7 27 -15z
m957 -121 c14 -17 125 -74 144 -74 6 0 24 -12 40 -25 l30 -26 -35 6 c-59 11
-120 45 -179 102 -31 30 -47 50 -35 44 11 -5 27 -18 35 -27z m-896 -45 c10
-15 -20 -34 -100 -64 -38 -14 -81 -34 -95 -42 l-25 -17 16 25 c14 22 157 105
186 108 6 1 15 -4 18 -10z"/>
<path d="M2902 2338 c-7 -7 -12 -21 -12 -33 0 -34 20 -45 80 -45 31 0 62 -6
69 -12 11 -11 13 -10 7 5 -3 10 -6 22 -6 27 0 5 -14 22 -31 39 -33 33 -84 42
-107 19z"/>
<path d="M3305 2338 c-26 -14 -54 -49 -55 -68 0 -12 12 -14 62 -12 70 4 88 14
88 46 0 43 -48 60 -95 34z"/>
<path d="M3147 2160 c-3 -8 -8 -49 -10 -90 -6 -83 -34 -170 -68 -206 -48 -51
-126 -40 -180 25 -27 32 -30 33 -24 11 27 -94 107 -142 187 -111 29 11 88 70
88 88 0 20 18 15 25 -7 8 -25 61 -66 103 -81 27 -9 39 -7 77 11 53 26 84 66
91 117 l5 38 -18 -24 c-56 -74 -80 -91 -127 -91 -77 0 -97 36 -126 225 -10 60
-20 103 -23 95z"/>
<path d="M2540 1281 c-31 -60 14 -118 74 -95 9 3 16 12 16 20 0 17 -12 18 -27
3 -19 -19 -43 -2 -43 31 0 35 22 49 45 30 18 -15 30 -7 22 15 -9 23 -74 20
-87 -4z"/>
<path d="M2672 1288 c-35 -45 -14 -108 37 -108 52 0 82 68 45 104 -19 19 -68
21 -82 4z m62 -32 c8 -32 -3 -58 -23 -54 -17 3 -27 39 -17 64 9 22 33 16 40
-10z"/>
<path d="M2790 1239 c0 -44 3 -60 12 -57 7 3 13 11 14 19 4 51 6 53 18 20 17
-48 30 -48 49 -4 l15 38 1 -37 c1 -27 6 -38 16 -38 12 0 15 13 15 60 0 56 -2
60 -23 60 -16 0 -26 -8 -34 -27 l-10 -28 -11 28 c-8 19 -19 27 -37 27 -24 0
-25 -2 -25 -61z"/>
<path d="M2960 1240 c0 -47 3 -60 15 -60 12 0 15 13 15 60 0 47 -3 60 -15 60
-12 0 -15 -13 -15 -60z"/>
<path d="M3019 1296 c-2 -2 -2 -29 -1 -60 4 -59 22 -78 22 -23 l1 32 29 -32
c16 -18 34 -33 40 -33 6 0 10 26 10 60 0 33 -4 60 -10 60 -5 0 -10 -11 -10
-25 0 -14 -4 -25 -9 -25 -5 0 -16 11 -25 25 -15 23 -36 32 -47 21z"/>
<path d="M3156 1278 c-20 -28 -20 -48 -1 -76 13 -17 24 -21 61 -20 42 2 45 4
42 28 -2 19 -10 26 -30 28 -28 3 -39 -12 -15 -21 6 -2 9 -8 5 -12 -16 -17 -38
5 -38 40 0 28 4 35 20 35 11 0 20 -4 20 -10 0 -5 7 -10 15 -10 18 0 19 12 3
28 -20 20 -65 14 -82 -10z"/>
<path d="M3321 1286 c-18 -22 -7 -45 29 -57 37 -14 29 -32 -11 -24 -30 7 -41
-8 -13 -19 67 -26 120 37 54 64 -40 17 -49 33 -17 28 15 -1 27 2 29 7 5 17
-57 17 -71 1z"/>
<path d="M3440 1281 c-26 -49 1 -101 53 -101 30 0 47 24 47 67 0 38 -16 53
-57 53 -22 0 -36 -6 -43 -19z m65 -41 c0 -28 -4 -35 -20 -35 -13 0 -21 8 -23
23 -5 34 5 54 25 50 13 -2 18 -13 18 -38z"/>
<path d="M3577 1282 c-38 -42 -6 -107 49 -100 19 2 34 13 44 31 13 24 13 30 0
55 -20 34 -68 42 -93 14z m58 -42 c0 -51 -29 -48 -33 3 -3 33 -1 38 15 35 13
-2 18 -12 18 -38z"/>
<path d="M3700 1240 c0 -33 4 -60 10 -60 6 0 10 14 10 30 0 17 4 30 8 30 5 0
18 -13 30 -30 13 -16 27 -30 32 -30 6 0 10 27 10 60 0 33 -4 60 -10 60 -5 0
-10 -15 -10 -32 l-1 -33 -27 33 c-40 48 -52 42 -52 -28z"/>
</g>
</svg>
